# xmcd CD database file
# Copyright (C) 2007 Ti Kan
# 
# Track frame offsets:
#     150
#     12068
#     27299
#     43471
#     58930
#     72676
#     88675
#     101714
#     122165
#     135890
#     155765
#     171224
# 
# Disc length: 2482 seconds
# 
# Revision: 1
# Processed by: cddbd v1.5.2PL0 Copyright (c) Steve Scherf et al.
# Submitted via: DiscPlay 4.0.4
# 
DISCID=aa09b00c
DTITLE=Ray Bonneville - Roll It Down
DYEAR=1900
DGENRE=
TTITLE0=Been A Train
TTITLE1=You Know What I Mean
TTITLE2=Stand Real Still
TTITLE3=Who's Talkin' To Me
TTITLE4=Slow
TTITLE5=Tiptoe
TTITLE6=Walk
TTITLE7=Oxford
TTITLE8=Roll
TTITLE9=July
TTITLE10=Under
TTITLE11=Tomorrow
EXTD=Submitted by ecto@cox.net
EXTT0=
EXTT1=
EXTT2=
EXTT3=
EXTT4=
EXTT5=
EXTT6=
EXTT7=
EXTT8=
EXTT9=
EXTT10=
EXTT11=
PLAYORDER=
